<svg width="18" height="18" viewBox="0 0 18 18" fill="none" xmlns="http://www.w3.org/2000/svg">
<path d="M18 9C18 4.06452 13.9355 0 9 0C4.02823 0 0 4.06452 0 9C0 13.9718 4.02823 18 9 18C13.9355 18 18 13.9718 18 9ZM7.94758 13.7903C7.72984 14.0081 7.33065 14.0081 7.1129 13.7903L3.33871 10.0161C3.12097 9.79839 3.12097 9.39919 3.33871 9.18145L4.17339 8.38306C4.39113 8.12903 4.75403 8.12903 4.97177 8.38306L7.54839 10.9234L12.9919 5.47984C13.2097 5.22581 13.5726 5.22581 13.7903 5.47984L14.625 6.27823C14.8427 6.49597 14.8427 6.89516 14.625 7.1129L7.94758 13.7903Z" fill="black"/>
</svg>
