<svg width="18" height="18" viewBox="0 0 18 18" fill="none" xmlns="http://www.w3.org/2000/svg">
<path d="M9 0C4.02823 0 0 4.02823 0 9C0 13.9718 4.02823 18 9 18C13.9718 18 18 13.9718 18 9C18 4.02823 13.9718 0 9 0ZM13.3911 11.3952C13.5726 11.5403 13.5726 11.8306 13.3911 12.0121L11.9758 13.4274C11.7944 13.6089 11.504 13.6089 11.3589 13.4274L9 11.0323L6.60484 13.4274C6.45968 13.6089 6.16935 13.6089 5.9879 13.4274L4.57258 11.9758C4.39113 11.8306 4.39113 11.5403 4.57258 11.3589L6.96774 9L4.57258 6.64113C4.39113 6.49597 4.39113 6.20565 4.57258 6.02419L6.02419 4.60887C6.16935 4.42742 6.45968 4.42742 6.64113 4.60887L9 6.96774L11.3589 4.60887C11.504 4.42742 11.7944 4.42742 11.9758 4.60887L13.3911 6.02419C13.5726 6.20565 13.5726 6.49597 13.3911 6.64113L11.0323 9L13.3911 11.3952Z" fill="black"/>
</svg>
