<svg width="18" height="18" viewBox="0 0 18 18" fill="none" xmlns="http://www.w3.org/2000/svg">
<path d="M5.11743 10.104L6.73532 8.48615L3.53472 5.32072C4.51952 4.79315 5.60983 4.47661 6.77049 4.47661C7.89597 4.47661 8.95111 4.75798 9.93591 5.28555L11.5538 3.6325C10.1469 2.75321 8.49389 2.22564 6.77049 2.22564C5.01192 2.22564 3.32369 2.75321 1.88167 3.66767L1.74098 3.52698C1.52995 3.31595 1.17824 3.31595 0.967213 3.52698L0.158271 4.33592C-0.0527571 4.54695 -0.0527571 4.89866 0.158271 5.10969L5.11743 10.104ZM14.3675 6.41103L12.7145 8.02892C13.242 9.01371 13.5234 10.104 13.5234 11.2295C13.5234 12.355 13.2069 13.4805 12.6793 14.4301L9.51386 11.2647L7.89597 12.8474L12.8903 17.8417C13.1013 18.0528 13.4882 18.0528 13.6992 17.8417L14.473 17.0328C14.7192 16.8218 14.7192 16.47 14.473 16.259L14.3323 16.0832C15.2468 14.6411 15.7744 12.9881 15.7744 11.2295C15.7744 9.50611 15.2468 7.81789 14.3675 6.41103ZM17.3571 0.00984436L12.82 0.9243C12.3979 0.994643 12.2221 1.52221 12.5386 1.83876L13.7696 3.03458L4.94158 11.8626L3.18301 11.2999C3.11267 11.2647 3.04232 11.2647 2.97198 11.2647C2.76095 11.2647 2.5851 11.335 2.44441 11.4757L0.228614 13.6915C-0.158271 14.0784 -0.0175857 14.7115 0.509985 14.8873L2.44441 15.5556L3.11267 17.49C3.28852 18.0176 3.92161 18.1583 4.30849 17.7714L6.52429 15.5556C6.66497 15.4149 6.77049 15.239 6.77049 15.028C6.77049 14.9577 6.73532 14.8873 6.70015 14.817L6.1374 13.0584L14.9654 4.23041L16.1612 5.46141C16.4778 5.77795 17.0054 5.60209 17.0757 5.18004L17.9902 0.642929C18.0605 0.256044 17.744 -0.0604984 17.3571 0.00984436Z" fill="#718298"/>
</svg>
